<svg width="34" height="24" viewBox="0 0 34 24" fill="none" xmlns="http://www.w3.org/2000/svg">
<path d="M17 23.6875C23.4548 23.6875 28.6875 18.4548 28.6875 12C28.6875 5.54517 23.4548 0.3125 17 0.3125C10.5452 0.3125 5.3125 5.54517 5.3125 12C5.3125 18.4548 10.5452 23.6875 17 23.6875Z" fill="#38A6E3"/>
<path opacity="0.1" d="M22.5543 17.6473L19.413 14.5085L11.3284 6.42395C10.7854 6.91582 10.3032 7.43696 10.3032 7.74867C10.3032 9.59205 11.9128 12.256 14.0167 14.4939C14.3285 14.83 14.6547 15.1538 14.9859 15.4655L15.0224 15.4996L22.0614 22.5386C23.2356 21.9736 24.2999 21.2174 25.2161 20.3117L22.5543 17.6498V17.6473Z" fill="black"/>
<path opacity="0.1" d="M21.0641 13.3932L15.5851 7.9142L13.0624 5.38902C12.9455 5.27454 12.7653 5.26237 12.6338 5.3598C12.4536 5.49375 12.1809 5.70317 11.8862 5.94667L25.7202 19.7806C25.9939 19.474 26.2507 19.1523 26.4913 18.818L23.6015 15.9282L21.0641 13.3932Z" fill="black"/>
<path d="M20.5928 13.4005C20.3981 13.6103 20.1939 13.8249 20.0008 14.0181C19.9934 14.0255 19.9871 14.0316 19.98 14.0388L23.0369 17.0957C23.2796 16.8061 23.4908 16.5388 23.629 16.3598C23.7296 16.2296 23.7169 16.0456 23.6006 15.9293L21.0636 13.3922C20.9323 13.261 20.719 13.2646 20.5928 13.4005Z" fill="white"/>
<path d="M19.4128 14.5077C18.478 14.8182 17.2994 14.519 16.2914 13.7016C14.9557 12.6185 14.2213 10.9008 14.4974 9.59232L11.3291 6.42407C10.7847 6.91542 10.3037 7.43713 10.3037 7.74973C10.3037 11.6177 17.3976 19.0983 21.244 18.69C21.5518 18.6573 22.0662 18.181 22.5536 17.6485L19.4128 14.5077Z" fill="white"/>
<path d="M12.6348 5.35899C12.4534 5.49496 12.1811 5.70417 11.8867 5.9456L14.937 8.99591C14.9387 8.99425 14.94 8.9928 14.9417 8.99114C15.1389 8.7939 15.3601 8.58495 15.5764 8.3863C15.7134 8.26038 15.7175 8.04615 15.5859 7.91458L13.0615 5.39023C12.9464 5.27513 12.765 5.26136 12.6348 5.35899Z" fill="white"/>
</svg>
