<svg width="54" height="22" viewBox="0 0 54 22" fill="none" xmlns="http://www.w3.org/2000/svg">
<g id="Group">
<path id="Vector" d="M10.0002 2.83635C9.37223 3.57945 8.36748 4.16556 7.36272 4.08183C7.23712 3.07707 7.72904 2.00951 8.30468 1.35014C8.93265 0.586108 10.0316 0.0418649 10.9212 0C11.0259 1.04662 10.6177 2.07231 10.0002 2.83635ZM10.9108 4.28068C9.45596 4.19695 8.21048 5.10752 7.51971 5.10752C6.81848 5.10752 5.76139 4.32255 4.6101 4.34348C3.11343 4.36441 1.72142 5.21218 0.95739 6.56232C-0.612543 9.26261 0.549208 13.2607 2.06681 15.4586C2.80991 16.5471 3.69954 17.7402 4.87176 17.6984C5.98118 17.6565 6.42076 16.9762 7.76044 16.9762C9.11058 16.9762 9.49783 17.6984 10.67 17.6774C11.8841 17.6565 12.6482 16.589 13.3913 15.5005C14.239 14.2655 14.5844 13.0618 14.6053 12.999C14.5844 12.9781 12.2609 12.0885 12.24 9.40913C12.219 7.16936 14.0716 6.10181 14.1553 6.03901C13.1087 4.49001 11.4759 4.32255 10.9108 4.28068ZM19.3151 1.24548V17.5623H21.848V11.9838H25.3542C28.5568 11.9838 30.8071 9.78592 30.8071 6.60419C30.8071 3.42245 28.5987 1.24548 25.4379 1.24548H19.3151ZM21.848 3.38059H24.768C26.966 3.38059 28.2219 4.55281 28.2219 6.61465C28.2219 8.6765 26.966 9.85918 24.7576 9.85918H21.848V3.38059ZM35.4331 17.6879C37.024 17.6879 38.4997 16.882 39.1696 15.6051H39.2219V17.5623H41.5663V9.44053C41.5663 7.08563 39.6824 5.56803 36.7833 5.56803C34.0935 5.56803 32.1049 7.10656 32.0316 9.22074H34.3132C34.5016 8.21598 35.4331 7.55661 36.71 7.55661C38.259 7.55661 39.1277 8.27878 39.1277 9.60799V10.5081L35.9669 10.6965C33.0259 10.8744 31.435 12.078 31.435 14.1713C31.435 16.2854 33.0782 17.6879 35.4331 17.6879ZM36.1134 15.7517C34.7633 15.7517 33.9051 15.1028 33.9051 14.1085C33.9051 13.0828 34.7319 12.4862 36.3123 12.392L39.1277 12.2141V13.1351C39.1277 14.6632 37.8299 15.7517 36.1134 15.7517ZM44.6957 22C47.1658 22 48.3275 21.058 49.3427 18.2008L53.7909 5.72502H51.2162L48.2333 15.3644H48.181L45.1981 5.72502H42.5502L46.8413 17.6042L46.6111 18.3264C46.2238 19.5509 45.5958 20.0219 44.4759 20.0219C44.2771 20.0219 43.8898 20.001 43.7328 19.98V21.9372C43.8794 21.9791 44.5073 22 44.6957 22Z" fill="white"/>
</g>
</svg>
