<svg width="40" height="40" viewBox="0 0 40 40" fill="none" xmlns="http://www.w3.org/2000/svg">
<path d="M25 9C25 10.3261 24.4732 11.5978 23.5355 12.5355C22.5978 13.4732 21.3261 14 20 14C18.6739 14 17.4021 13.4732 16.4645 12.5355C15.5268 11.5978 15 10.3261 15 9C15 7.67392 15.5268 6.40215 16.4645 5.46447C17.4021 4.52678 18.6739 4 20 4C21.3261 4 22.5978 4.52678 23.5355 5.46447C24.4732 6.40215 25 7.67392 25 9ZM35 10C35 11.0609 34.5786 12.0783 33.8284 12.8284C33.0783 13.5786 32.0609 14 31 14C29.9391 14 28.9217 13.5786 28.1716 12.8284C27.4214 12.0783 27 11.0609 27 10C27 8.93913 27.4214 7.92172 28.1716 7.17157C28.9217 6.42143 29.9391 6 31 6C32.0609 6 33.0783 6.42143 33.8284 7.17157C34.5786 7.92172 35 8.93913 35 10ZM9 14C10.0609 14 11.0783 13.5786 11.8284 12.8284C12.5786 12.0783 13 11.0609 13 10C13 8.93913 12.5786 7.92172 11.8284 7.17157C11.0783 6.42143 10.0609 6 9 6C7.93913 6 6.92172 6.42143 6.17157 7.17157C5.42143 7.92172 5 8.93913 5 10C5 11.0609 5.42143 12.0783 6.17157 12.8284C6.92172 13.5786 7.93913 14 9 14ZM12 18.5C12 17.12 13.12 16 14.5 16H25.5C26.88 16 28 17.12 28 18.5V28C28 30.1217 27.1571 32.1565 25.6568 33.6568C24.1566 35.1571 22.1217 36 20 36C17.8783 36 15.8434 35.1571 14.3431 33.6568C12.8429 32.1565 12 30.1217 12 28V18.5ZM10 18.5C10 17.574 10.28 16.716 10.758 16H6.5C5.12 16 4 17.12 4 18.5V26C3.99991 26.8562 4.18308 27.7026 4.5372 28.4821C4.89133 29.2617 5.40821 29.9565 6.05311 30.5197C6.69801 31.083 7.45599 31.5017 8.27613 31.7477C9.09627 31.9937 9.95956 32.0613 10.808 31.946C10.2729 30.6994 9.99795 29.3566 10 28V18.5ZM30 28C30 29.4 29.712 30.736 29.192 31.946C30.0404 32.0613 30.9037 31.9937 31.7239 31.7477C32.544 31.5017 33.302 31.083 33.9469 30.5197C34.5918 29.9565 35.1087 29.2617 35.4628 28.4821C35.8169 27.7026 36.0001 26.8562 36 26V18.5C36 17.12 34.88 16 33.5 16H29.242C29.722 16.716 30 17.574 30 18.5V28Z" fill="#28C76F"/>
</svg>
