<svg width="20" height="20" viewBox="0 0 20 20" fill="none" xmlns="http://www.w3.org/2000/svg">
<g id="link">
<path id="Path" d="M8.33301 11.6667C8.8816 12.2266 9.63247 12.5421 10.4163 12.5421C11.2002 12.5421 11.9511 12.2266 12.4997 11.6667L15.833 8.33332C16.9836 7.18273 16.9836 5.31725 15.833 4.16666C14.6824 3.01606 12.8169 3.01606 11.6663 4.16666L11.2497 4.58332" stroke="white" stroke-width="1.5" stroke-linecap="round" stroke-linejoin="round"/>
<path id="Path_2" d="M11.6667 8.33331C11.1181 7.77341 10.3672 7.45789 9.58332 7.45789C8.79946 7.45789 8.04858 7.77341 7.49999 8.33331L4.16666 11.6666C3.01606 12.8172 3.01606 14.6827 4.16666 15.8333C5.31725 16.9839 7.18273 16.9839 8.33332 15.8333L8.74999 15.4166" stroke="white" stroke-width="1.5" stroke-linecap="round" stroke-linejoin="round"/>
</g>
</svg>
